<?xml version="1.0" encoding="UTF-8"?>
<!DOCTYPE svg PUBLIC "-//W3C//DTD SVG 1.1//EN" "http://www.w3.org/Graphics/SVG/1.1/DTD/svg11.dtd">
<!-- Creator: CorelDRAW 2020 (64 Bit) -->
<svg xmlns="http://www.w3.org/2000/svg" xml:space="preserve" width="135.467mm" height="135.467mm" version="1.1" style="shape-rendering:geometricPrecision; text-rendering:geometricPrecision; image-rendering:optimizeQuality; fill-rule:evenodd; clip-rule:evenodd"
viewBox="0 0 1564.96 1564.96"
 xmlns:xlink="http://www.w3.org/1999/xlink"
 xmlns:xodm="http://www.corel.com/coreldraw/odm/2003">
 <defs>
  <style type="text/css">
   <![CDATA[
    .fil0 {fill:darkred}
   ]]>
  </style>
 </defs>
 <g id="Camada_x0020_1">
  <metadata id="CorelCorpID_0Corel-Layer"/>
  <g id="_2406603634224">
   <path class="fil0" d="M794.7 1094.25c-115.51,0 -180.22,-21.35 -269.02,-67.2 -32.97,-17.02 -82.17,-56.27 -107.7,-81.81 -89.36,-89.38 -155.12,-215.67 -155.12,-346.16 0,-98.77 8.15,-166.52 50.94,-251.66 14.7,-29.25 28.56,-54.14 46.87,-78.45 8.77,-11.64 17.74,-25.46 28.22,-35.97l31.12 -33.07c22.65,-17.29 30.43,-28.78 69.05,-56.27 67.72,-48.21 175.91,-88 262.93,-88.57 34.92,-0.23 -0.1,-4.85 58.16,-0.25 10.15,0.8 19.22,-0.36 29.6,0.97 79.3,10.15 125.36,27.06 192.34,61.35 15.19,7.77 26.63,15.01 40.15,24.04l53.33 41.42c12.06,11.22 18.2,13.11 33.59,30.6 79.99,90.86 142.92,206.6 142.92,336.96 0,121.75 -14.36,186.36 -69.36,285.2 -84.27,151.47 -263.5,258.86 -438.03,258.86zm-32.74 -1094.25l44.63 0c77.73,2.91 154.62,21.07 223.5,54.97 52.46,25.82 121.97,72.45 162.79,115.35l32.35 37.95c166.02,205.65 176.8,475.5 27.36,695.89 -19.49,28.75 -41.65,53.48 -65.91,77.75 -224.17,224.22 -587.77,220.69 -809.99,-1.53 -99.48,-99.48 -168.87,-235.11 -168.87,-421.04 0,-62.73 15.04,-122.78 33.21,-177.69 16.12,-48.7 43.79,-96.5 70.7,-137.15 20.22,-30.53 53.09,-68.68 81.64,-92.59 6.86,-5.74 10.23,-10.77 17.08,-16.54 25.94,-21.85 53.41,-40.64 82.58,-58.02 80.15,-47.76 174.12,-73.83 268.91,-77.37z"/>
   <path class="fil0" d="M470.71 443.2c0,-14.79 9.67,-24.45 24.45,-24.45l574.63 0c14.78,0 24.45,9.67 24.45,24.45 0,28.78 -26.71,24.49 -55.02,24.45 -31.87,-0.04 -129.33,-4.87 -151.7,7.24 -37.6,20.34 -28.63,69.47 -28.63,121.14 0,35.07 8.26,60.58 15.28,88.64 6.98,27.92 14.62,55.14 21.4,82.52l42.79 168.12c0,28.13 -44.88,45.36 -56.9,1.88 -11.63,-42.08 -54.52,-250.82 -62.3,-264.75 -15.21,-27.23 -54.72,-29.26 -72.21,-1.9 -9.06,14.19 -52.04,223.16 -62.83,264.22 -12.86,48.92 -57.52,25.31 -57.52,3.61 0,-28.9 79.47,-277.61 79.47,-342.33 0,-50.61 8.69,-99.02 -26.71,-120.01 -18.97,-11.25 -42.6,-8.37 -71.1,-8.37 -26.49,0 -52.98,-0.02 -79.47,0 -29.02,0.02 -58.07,5.19 -58.07,-24.45zm-55.02 0c0,21.87 10.87,42.54 22.04,54.37 10.94,11.59 33.02,25.1 54.37,25.1l158.94 0c0,128.35 3.21,84.69 -25.68,200.51 -9.52,38.18 -18.77,77.11 -29.71,113.95 -7.71,25.96 -26.27,89.43 -21.01,113.23 4.4,19.96 11.92,33.2 25.12,45.39 36.2,33.44 90.76,27.55 119.07,-7.94 15.02,-18.83 18.98,-44.31 25.2,-72.61 6.21,-28.25 11.81,-51.4 18.23,-79.58l23.26 -80.66 43.96 197.51c20.01,81.47 109.37,80.78 143.07,38.42 38.08,-47.86 7.59,-108.56 -12.19,-187.64 -8.21,-32.85 -16.65,-63.56 -24.45,-94.75 -27.02,-108.08 -22.01,-63.25 -22.01,-185.83l152.83 0c73.48,0 108.09,-86.57 59.02,-135.43 -12.57,-12.52 -34.9,-23.51 -59.02,-23.51l-568.52 0c-43.36,0 -82.53,36.82 -82.53,79.47z"/>
   <path class="fil0" d="M470.71 1461.03c0,-70.79 100.87,-61.77 100.87,-9.17 0,89.23 -100.87,68.58 -100.87,9.17zm-48.9 -27.51c-22.27,0 -392.41,-5.15 -408.85,3.78 -11.83,6.42 -12.95,13.83 -12.95,23.73 0,35.58 47.35,27.51 82.53,27.51l339.28 0c2.82,33.83 50.7,76.41 88.64,76.41 71.66,0 88.84,-25.88 113.09,-76.41 282.22,0 564.44,0 846.67,0 51.3,0 94.75,11.22 94.75,-33.62 0,-6.55 -6.06,-13.18 -11.04,-16.47 -7.44,-4.91 -13.98,-5.07 -25.47,-5.1l-904.91 0.17c-11.66,-24.31 -12.82,-36.65 -34.85,-53.79 -79.52,-61.85 -163.01,7.26 -166.88,53.79z"/>
   <path class="fil0" d="M1045.34 1280.7c0,-73.12 100.87,-72.35 100.87,3.06 0,56.64 -100.87,64.18 -100.87,-3.06zm-51.96 -30.57c-297.5,0 -595.01,0 -892.51,0 -61.7,0 -100.87,-10.44 -100.87,33.62 0,7.37 7.33,14.57 12.95,17.62 14.51,7.88 198.52,3.78 219.35,3.78 253.69,0 507.39,0 761.08,0 8.11,16.9 13.74,38.18 34.82,53.82 82.78,61.47 163.06,-7.45 166.92,-53.82l342.39 0.06c17.97,-1.48 27.45,-11.79 27.45,-27.57 0,-32.8 -37.5,-27.51 -70.3,-27.51l-299.54 0c-2.86,-34.37 -50.75,-76.41 -88.64,-76.41 -37.04,0 -53.38,1.26 -83.71,29.38 -20.31,18.83 -19.5,28.35 -29.38,47.03z"/>
   <path class="fil0" d="M730.52 207.85c0,-21.99 20.6,-48.91 42.79,-48.91 19.31,0 33.26,-2.05 48.19,16 28.41,34.35 4.47,84.87 -39.02,84.87 -28.02,0 -51.96,-24.4 -51.96,-51.96zm-51.96 -12.23c0,49.75 10.65,84.21 60.04,108.07 74.4,35.95 147.81,-27.65 147.81,-86.68 0,-33.29 -3.13,-58.44 -31.21,-84.94 -69.5,-65.57 -176.63,-6.81 -176.63,63.54z"/>
  </g>
 </g>
</svg>
