<?xml version="1.0" encoding="UTF-8"?>
<!DOCTYPE svg PUBLIC "-//W3C//DTD SVG 1.1//EN" "http://www.w3.org/Graphics/SVG/1.1/DTD/svg11.dtd">
<!-- Creator: CorelDRAW 2020 (64 Bit) -->
<svg xmlns="http://www.w3.org/2000/svg" xml:space="preserve" width="114.829mm" height="135.467mm" version="1.1" style="shape-rendering:geometricPrecision; text-rendering:geometricPrecision; image-rendering:optimizeQuality; fill-rule:evenodd; clip-rule:evenodd"
viewBox="0 0 756.69 892.69"
 xmlns:xlink="http://www.w3.org/1999/xlink"
 xmlns:xodm="http://www.corel.com/coreldraw/odm/2003">
 <defs>
  <style type="text/css">
   <![CDATA[
    .fil0 {fill:darkred}
   ]]>
  </style>
 </defs>
 <g id="Camada_x0020_1">
  <metadata id="CorelCorpID_0Corel-Layer"/>
  <g id="_2406607558784">
   <path class="fil0" d="M109.84 598.03l0 -303.37c0,-28.66 25.39,-54.05 54.05,-54.05l428.91 0c28.9,0 54.05,25.36 54.05,54.05l0 303.37c0,28.66 -25.39,54.05 -54.05,54.05l-432.4 0c-24.03,0 -50.56,-24.91 -50.56,-54.05zm-22.67 -301.63l0 303.38c0,20.42 12.57,41.2 23.05,51.92 11.32,11.57 31.29,23.05 53.66,23.05l430.65 0c37.86,0 74.97,-35.57 74.97,-78.46l0 -299.89c0,-41.79 -35.21,-78.46 -76.72,-78.46l-430.65 0c-37.86,0 -74.97,35.57 -74.97,78.46z"/>
   <path class="fil0" d="M202.25 169.12c0,6.78 -1.59,17.44 10.46,17.44 18.31,0 6.43,-18.52 19.36,-59.1 7.75,-24.33 20.64,-43.34 37.47,-60.17 24.1,-24.1 61.36,-44.62 96.6,-44.62 32.37,0 57.2,1.11 85.37,17.5 43.31,25.2 74.92,67.21 80.03,118.73 1.64,16.53 -2.54,27.66 14.19,27.66 21.48,0 -0.66,-71.14 -7.53,-84.87 -6.58,-13.14 -14.4,-27.9 -24.29,-38.48l-32.42 -30.35c-22.5,-16.51 -61.56,-32.85 -92.68,-32.85 -35.52,0 -54.99,1.19 -87.18,17.43 -56.75,28.63 -99.37,85.1 -99.37,151.69z"/>
   <path class="fil0" d="M380.09 537.01c-11.4,0 -17.61,-9.97 -17.51,-24.34 0.48,-70.75 2.41,-49.48 -15.13,-68.56 -27.36,-29.74 -8.22,-79.72 32.64,-79.72 31.56,0 57.74,30.32 45.18,64.36 -9.53,25.81 -24.63,10.67 -24.28,41.97 0.3,27.68 6.92,66.28 -20.89,66.28zm-68 -129.02c0,24.94 13.06,53.57 27.9,57.54 0,35.5 -7.79,65.46 16.15,84.98 24.04,19.6 66.45,7.07 67.6,-37.84 0.23,-8.8 -1.31,-38.92 0.36,-44.97 2.13,-7.7 10.26,-7.29 19.4,-25.94 35.78,-73.04 -62.75,-132.24 -111.42,-80.04 -9.18,9.85 -19.98,28.28 -19.98,46.27z"/>
   <path class="fil0" d="M526.55 815.97c-9.32,-2.49 -23.15,-18.19 -34.87,-20.92 -2.97,5.61 -8.89,13.3 -10.46,19.18 12.8,6.77 23.81,14.15 36.61,20.92 -3.72,5.56 -31.74,21.36 -36.61,22.67 1.36,5.83 8.19,16.24 12.2,19.18 6.38,-1.7 26.64,-16.58 33.13,-20.92l0 36.61 24.41 0c0,-15.39 -1.74,-23.59 -1.74,-38.36 5.69,3.81 10.55,7.03 16.75,11.15 5.86,3.89 11.95,9.87 18.12,11.52 4.02,-2.94 10.85,-13.35 12.2,-19.18l-38.36 -22.67c6.24,-1.46 29.78,-16.39 38.36,-20.92 -2.15,-8.05 -8.31,-11.13 -10.46,-19.18 -7.26,1.69 -29.51,17.91 -36.61,22.67l1.74 -38.36 -24.41 0 0 36.61z"/>
   <path class="fil0" d="M205.74 815.97c-9.32,-2.49 -23.15,-18.19 -34.87,-20.92 -2.97,5.61 -8.89,13.3 -10.46,19.18l28.72 16.61c6.51,3.74 6.12,1.15 7.9,7.79 -7.08,1.65 -12.17,5.69 -18.42,9.48 -4.87,2.95 -13.27,8.38 -18.2,9.7 1.36,5.83 8.19,16.24 12.2,19.18 6.38,-1.7 26.64,-16.58 33.13,-20.92l0 36.61 24.41 0c0,-15.39 -1.74,-23.59 -1.74,-38.36l34.87 22.67c4.02,-2.94 10.85,-13.35 12.2,-19.18l-38.36 -22.67c6.24,-1.46 29.78,-16.39 38.36,-20.92 -2.15,-8.05 -8.31,-11.13 -10.46,-19.18 -7.26,1.69 -29.51,17.91 -36.61,22.67l1.74 -38.36 -24.41 0 0 36.61z"/>
   <path class="fil0" d="M686.95 815.97c-11.5,-3.07 -22.2,-17.97 -34.87,-20.92 -2.97,5.61 -8.89,13.3 -10.46,19.18 12.8,6.77 23.81,14.15 36.61,20.92 -3.72,5.56 -31.74,21.36 -36.61,22.67 1.36,5.83 8.19,16.24 12.2,19.18 6.38,-1.7 26.64,-16.58 33.13,-20.92l0 36.61 24.41 0 -2.12 -38.33 35.25 22.64c4.02,-2.94 10.85,-13.35 12.2,-19.18l-38.36 -22.67c6.24,-1.46 29.78,-16.39 38.36,-20.92 -2.15,-8.05 -8.31,-11.13 -10.46,-19.18 -7.26,1.69 -29.51,17.91 -36.61,22.67l1.74 -38.36 -24.41 0 0 36.61z"/>
   <path class="fil0" d="M45.33 815.97c-9.32,-2.49 -23.15,-18.19 -34.87,-20.92 -2.97,5.61 -8.89,13.3 -10.46,19.18l28.72 16.61c6.51,3.74 6.12,1.15 7.9,7.79 -7.1,1.65 -12.14,5.69 -18.42,9.47 -5.61,3.38 -12.14,8.3 -18.19,9.71 1.36,5.83 8.19,16.24 12.2,19.18 6.38,-1.7 26.64,-16.58 33.13,-20.92l0 36.61 24.41 0 -1.74 -38.36c5.69,3.81 10.55,7.03 16.75,11.15 5.86,3.89 11.95,9.87 18.12,11.52 4.02,-2.94 10.85,-13.35 12.2,-19.18 -5.28,-1.41 -14.75,-7.63 -19.28,-10.36 -5.03,-3.03 -16.18,-8.35 -19.08,-12.3 6.24,-1.46 29.78,-16.39 38.36,-20.92 -2.15,-8.05 -8.31,-11.13 -10.46,-19.18 -7.26,1.69 -29.51,17.91 -36.61,22.67l1.74 -38.36 -24.41 0 0 36.61z"/>
   <path class="fil0" d="M366.14 815.97c-9.32,-2.49 -23.15,-18.19 -34.87,-20.92 -2.97,5.61 -8.89,13.3 -10.46,19.18 12.8,6.77 23.81,14.15 36.61,20.92 -3.72,5.56 -31.74,21.36 -36.61,22.67 1.36,5.83 8.19,16.24 12.2,19.18 6.38,-1.7 26.64,-16.58 33.13,-20.92l0 36.61 24.41 0c0,-15.39 -1.74,-23.59 -1.74,-38.36 5.69,3.81 10.55,7.03 16.75,11.15 5.86,3.89 11.95,9.87 18.12,11.52 4.02,-2.94 10.85,-13.35 12.2,-19.18 -6.17,-1.44 -14.16,-7.3 -19.28,-10.36 -5.01,-3 -16.2,-8.37 -19.08,-12.3 5.08,-1.18 14.66,-7.2 19.53,-10.12 6.82,-4.09 11.91,-7.15 18.83,-10.81 -2.15,-8.05 -8.31,-11.13 -10.46,-19.18 -7.26,1.69 -29.51,17.91 -36.61,22.67l1.74 -38.36 -24.41 0 0 36.61z"/>
  </g>
 </g>
</svg>
